<svg width="32" height="32" viewBox="0 0 32 32" fill="none" xmlns="http://www.w3.org/2000/svg">
<path fill-rule="evenodd" clip-rule="evenodd" d="M8.57306 12.7891C8.57306 10.0126 11.1571 7 15 7C18.8429 7 21.4269 10.0126 21.4269 12.7891C21.4269 13.5014 21.5176 14.0001 21.6414 14.3837C21.7656 14.7684 21.931 15.0641 22.1217 15.3831C22.1412 15.4157 22.1612 15.4489 22.1815 15.4828C22.3555 15.7717 22.5574 16.1071 22.7115 16.5103C22.8892 16.9752 23 17.5146 23 18.2152C23 18.2339 22.9992 18.2526 22.9976 18.2713C22.9347 18.9957 22.7194 19.6314 22.3098 20.1611C21.902 20.6885 21.3387 21.0628 20.6594 21.3287C19.3323 21.8484 17.4363 22 15 22C12.5648 22 10.6689 21.8508 9.34173 21.3325C8.66228 21.0671 8.09865 20.6931 7.69055 20.165C7.28074 19.6346 7.06548 18.9977 7.00243 18.2713C7.00081 18.2526 7 18.2339 7 18.2152C7 17.5146 7.11081 16.9752 7.28853 16.5103C7.44263 16.1071 7.64453 15.7717 7.81845 15.4828C7.83884 15.4489 7.85884 15.4157 7.87834 15.3831C8.06897 15.0641 8.23444 14.7684 8.3586 14.3837C8.48237 14.0001 8.57306 13.5014 8.57306 12.7891ZM15 8.29701C11.8458 8.29701 9.87035 10.7563 9.87035 12.7891C9.87035 13.616 9.76441 14.2515 9.59323 14.7819C9.42245 15.3111 9.19465 15.7092 8.99202 16.0483C8.97197 16.0818 8.95236 16.1145 8.93316 16.1465C8.75373 16.4456 8.61127 16.6831 8.50035 16.9733C8.38513 17.2747 8.30026 17.6482 8.29737 18.1868C8.34639 18.7062 8.49395 19.0831 8.71717 19.372C8.94604 19.6682 9.29227 19.9207 9.81377 20.1244C10.8885 20.5441 12.5589 20.703 15 20.703C17.4409 20.703 19.1116 20.5418 20.1864 20.121C20.7081 19.9168 21.0545 19.6639 21.2835 19.3678C21.5066 19.0792 21.6539 18.7035 21.7026 18.1868C21.6997 17.6482 21.6149 17.2747 21.4997 16.9733C21.3887 16.6831 21.2463 16.4456 21.0668 16.1465C21.0476 16.1145 21.028 16.0818 21.008 16.0483C20.8054 15.7092 20.5776 15.3111 20.4068 14.7819C20.2356 14.2515 20.1296 13.616 20.1296 12.7891C20.1296 10.7563 18.1542 8.29701 15 8.29701Z" fill="#3F4765"/>
<path fill-rule="evenodd" clip-rule="evenodd" d="M12.2343 23.2181C12.5245 22.9038 12.9712 22.9326 13.232 23.2824C14.2459 24.6421 15.7614 24.6293 16.7685 23.2816C17.0296 22.9322 17.4763 22.9041 17.7663 23.2187C18.0562 23.5334 18.0796 24.0717 17.8185 24.4211C16.2556 26.5124 13.7618 26.5404 12.181 24.4204C11.9202 24.0707 11.9441 23.5324 12.2343 23.2181Z" fill="#3F4765"/>
<path d="M25 10C25 11.6569 23.6569 13 22 13C20.3431 13 19 11.6569 19 10C19 8.34315 20.3431 7 22 7C23.6569 7 25 8.34315 25 10Z" fill="#FF5151"/>
<path fill-rule="evenodd" clip-rule="evenodd" d="M22 12.25C23.2426 12.25 24.25 11.2426 24.25 10C24.25 8.75736 23.2426 7.75 22 7.75C20.7574 7.75 19.75 8.75736 19.75 10C19.75 11.2426 20.7574 12.25 22 12.25ZM22 13C23.6569 13 25 11.6569 25 10C25 8.34315 23.6569 7 22 7C20.3431 7 19 8.34315 19 10C19 11.6569 20.3431 13 22 13Z" fill="white"/>
</svg>
