<svg width="32" height="32" viewBox="0 0 32 32" fill="none" xmlns="http://www.w3.org/2000/svg">
<rect width="32" height="32" rx="8" fill="white"/>
<path d="M13.2799 16.9798C14.2199 16.9798 14.9733 17.7404 14.9733 18.6871V20.9598C14.9733 21.8998 14.2199 22.6664 13.2799 22.6664H11.0266C10.0933 22.6664 9.33325 21.8998 9.33325 20.9598V18.6871C9.33325 17.7404 10.0933 16.9798 11.0266 16.9798H13.2799ZM20.9733 16.9798C21.9067 16.9798 22.6667 17.7404 22.6667 18.6871V20.9598C22.6667 21.8998 21.9067 22.6664 20.9733 22.6664H18.72C17.78 22.6664 17.0267 21.8998 17.0267 20.9598V18.6871C17.0267 17.7404 17.78 16.9798 18.72 16.9798H20.9733ZM20.9733 9.33331C21.9067 9.33331 22.6667 10.1 22.6667 11.0406V13.3133C22.6667 14.26 21.9067 15.02 20.9733 15.02H18.72C17.78 15.02 17.0267 14.26 17.0267 13.3133V11.0406C17.0267 10.1 17.78 9.33331 18.72 9.33331H20.9733Z" fill="#0026FF"/>
<path d="M14.9733 11.0407C14.9733 10.1 14.2199 9.33333 13.2799 9.33333H11.0266C10.0933 9.33333 9.33325 10.1 9.33325 11.0407V13.3133C9.33325 14.26 10.0933 15.02 11.0266 15.02H13.2799C14.2199 15.02 14.9733 14.26 14.9733 13.3133V11.0407Z" fill="#0026FF"/>
</svg>
