<svg width="32" height="32" viewBox="0 0 32 32" fill="none" xmlns="http://www.w3.org/2000/svg">
<rect x="0.5" y="0.5" width="31" height="31" rx="7.5" stroke="#E7EEEF"/>
<path d="M13.2802 16.9798C14.2202 16.9798 14.9735 17.7404 14.9735 18.6871V20.9598C14.9735 21.8998 14.2202 22.6664 13.2802 22.6664H11.0268C10.0935 22.6664 9.3335 21.8998 9.3335 20.9598V18.6871C9.3335 17.7404 10.0935 16.9798 11.0268 16.9798H13.2802ZM20.9736 16.9798C21.9069 16.9798 22.6669 17.7404 22.6669 18.6871V20.9598C22.6669 21.8998 21.9069 22.6664 20.9736 22.6664H18.7202C17.7802 22.6664 17.0269 21.8998 17.0269 20.9598V18.6871C17.0269 17.7404 17.7802 16.9798 18.7202 16.9798H20.9736ZM20.9736 9.33331C21.9069 9.33331 22.6669 10.1 22.6669 11.0406V13.3133C22.6669 14.26 21.9069 15.02 20.9736 15.02H18.7202C17.7802 15.02 17.0269 14.26 17.0269 13.3133V11.0406C17.0269 10.1 17.7802 9.33331 18.7202 9.33331H20.9736Z" fill="#9FA8C7"/>
<path d="M14.9735 11.0407C14.9735 10.1 14.2202 9.33333 13.2802 9.33333H11.0268C10.0935 9.33333 9.3335 10.1 9.3335 11.0407V13.3133C9.3335 14.26 10.0935 15.02 11.0268 15.02H13.2802C14.2202 15.02 14.9735 14.26 14.9735 13.3133V11.0407Z" fill="#9FA8C7"/>
</svg>
