<svg width="32" height="32" viewBox="0 0 32 32" fill="none" xmlns="http://www.w3.org/2000/svg">
<rect width="32" height="32" rx="8" fill="white"/>
<path d="M19.1128 9.3335C21.3802 9.3335 22.6602 10.6195 22.6668 12.8868V19.1135C22.6668 21.3802 21.3802 22.6668 19.1128 22.6668H12.8868C10.6195 22.6668 9.3335 21.3802 9.3335 19.1135V12.8868C9.3335 10.6195 10.6195 9.3335 12.8868 9.3335H19.1128ZM16.3335 12.0868C16.1462 11.9735 15.9195 11.9735 15.7402 12.0868C15.5595 12.1995 15.4602 12.4068 15.4795 12.6135V19.4068C15.5135 19.6935 15.7528 19.9068 16.0328 19.9068C16.3202 19.9068 16.5595 19.6935 16.5862 19.4068V12.6135C16.6128 12.4068 16.5135 12.1995 16.3335 12.0868ZM13.2202 14.2735C13.0402 14.1602 12.8128 14.1602 12.6335 14.2735C12.4528 14.3868 12.3535 14.5928 12.3735 14.8002V19.4068C12.3995 19.6935 12.6395 19.9068 12.9262 19.9068C13.2135 19.9068 13.4528 19.6935 13.4795 19.4068V14.8002C13.5002 14.5928 13.3995 14.3868 13.2202 14.2735ZM19.3928 16.6935C19.2135 16.5802 18.9868 16.5802 18.8002 16.6935C18.6195 16.8068 18.5202 17.0062 18.5468 17.2202V19.4068C18.5735 19.6935 18.8128 19.9068 19.1002 19.9068C19.3802 19.9068 19.6195 19.6935 19.6535 19.4068V17.2202C19.6728 17.0062 19.5735 16.8068 19.3928 16.6935Z" fill="#0026FF"/>
</svg>
