<svg width="32" height="32" viewBox="0 0 32 32" fill="none" xmlns="http://www.w3.org/2000/svg">
<rect width="32" height="32" rx="8" fill="white"/>
<path d="M19.0105 10C21.3098 10 22.6668 11.3231 22.6668 13.5879H19.8461V13.611C18.537 13.611 17.4757 14.6457 17.4757 15.922C17.4757 17.1983 18.537 18.233 19.8461 18.233H22.6668V18.441C22.6668 20.6769 21.3098 22 19.0105 22H12.9898C10.6905 22 9.3335 20.6769 9.3335 18.441V13.559C9.3335 11.3231 10.6905 10 12.9898 10H19.0105ZM22.1691 14.5816C22.444 14.5816 22.6668 14.7989 22.6668 15.0669V16.754C22.6636 17.0207 22.4426 17.2362 22.1691 17.2393H19.8994C19.2367 17.248 18.6572 16.8056 18.5068 16.1762C18.4316 15.7855 18.5372 15.3824 18.7955 15.0748C19.0539 14.7672 19.4384 14.5867 19.8461 14.5816H22.1691ZM20.1661 15.3616H19.9468C19.8122 15.36 19.6826 15.4111 19.5868 15.5034C19.4911 15.5956 19.4372 15.7214 19.4372 15.8527C19.4372 16.128 19.6644 16.3522 19.9468 16.3553H20.1661C20.4475 16.3553 20.6757 16.1329 20.6757 15.8584C20.6757 15.584 20.4475 15.3616 20.1661 15.3616ZM16.255 12.5941H12.492C12.2129 12.5941 11.9856 12.8131 11.9824 13.0852C11.9824 13.3606 12.2096 13.5847 12.492 13.5879H16.255C16.5364 13.5879 16.7646 13.3654 16.7646 13.091C16.7646 12.8166 16.5364 12.5941 16.255 12.5941Z" fill="#0026FF"/>
</svg>
