<svg width="32" height="32" viewBox="0 0 32 32" fill="none" xmlns="http://www.w3.org/2000/svg">
<rect x="0.5" y="0.5" width="31" height="31" rx="7.5" stroke="#E7EEEF"/>
<path d="M19.0103 10C21.3095 10 22.6666 11.3231 22.6666 13.5879H19.8458V13.611C18.5367 13.611 17.4755 14.6457 17.4755 15.922C17.4755 17.1983 18.5367 18.233 19.8458 18.233H22.6666V18.441C22.6666 20.6769 21.3095 22 19.0103 22H12.9895C10.6903 22 9.33325 20.6769 9.33325 18.441V13.559C9.33325 11.3231 10.6903 10 12.9895 10H19.0103ZM22.1688 14.5816C22.4437 14.5816 22.6666 14.7989 22.6666 15.0669V16.754C22.6634 17.0207 22.4424 17.2362 22.1688 17.2393H19.8992C19.2364 17.248 18.6569 16.8056 18.5066 16.1762C18.4313 15.7855 18.537 15.3824 18.7953 15.0748C19.0536 14.7672 19.4381 14.5867 19.8458 14.5816H22.1688ZM20.1658 15.3616H19.9466C19.812 15.36 19.6823 15.4111 19.5866 15.5034C19.4908 15.5956 19.437 15.7214 19.437 15.8527C19.4369 16.128 19.6642 16.3522 19.9466 16.3553H20.1658C20.4473 16.3553 20.6755 16.1329 20.6755 15.8584C20.6755 15.584 20.4473 15.3616 20.1658 15.3616ZM16.2547 12.5941H12.4918C12.2126 12.5941 11.9854 12.8131 11.9821 13.0852C11.9821 13.3606 12.2094 13.5847 12.4918 13.5879H16.2547C16.5362 13.5879 16.7644 13.3654 16.7644 13.091C16.7644 12.8166 16.5362 12.5941 16.2547 12.5941Z" fill="#9FA8C7"/>
</svg>
