<svg width="18" height="18" viewBox="0 0 18 18" fill="none" xmlns="http://www.w3.org/2000/svg">
<path d="M9.408 0.635498V2.30216M5.658 1.8855L6.908 3.1355M13.158 1.8855L11.908 3.1355M11.2955 14.2788C11.5588 13.4747 11.6905 13.073 11.9597 12.7963C12.088 12.6641 12.2344 12.5569 12.3988 12.4747C12.7413 12.3022 13.158 12.3022 13.9913 12.3022C14.8247 12.3022 15.2413 12.3022 15.5847 12.4747C15.748 12.5569 15.8944 12.6641 16.0238 12.7963C16.293 13.073 16.4238 13.4747 16.688 14.2788L16.9597 15.108C17.288 16.1097 17.4522 16.6097 17.2072 16.9563C16.9613 17.3022 16.443 17.3022 15.4055 17.3022H12.578C11.5405 17.3022 11.0213 17.3022 10.7763 16.9563C10.5305 16.6097 10.6947 16.1097 11.023 15.108L11.2955 14.2788ZM6.71133 7.61216C6.97467 6.808 7.10717 6.40633 7.3755 6.12966C7.50494 5.99744 7.65133 5.89022 7.81467 5.808C8.158 5.6355 8.57467 5.6355 9.408 5.6355C10.2413 5.6355 10.658 5.6355 11.0013 5.808C11.1647 5.89022 11.3111 5.99744 11.4405 6.12966C11.7088 6.40633 11.8405 6.808 12.1047 7.61216L12.3763 8.44133C12.7047 9.443 12.868 9.943 12.6238 10.2897C12.378 10.6355 11.8597 10.6355 10.8213 10.6355H7.99467C6.95633 10.6355 6.438 10.6355 6.193 10.2897C5.94717 9.943 6.11133 9.443 6.43967 8.44133L6.71133 7.61216ZM2.128 14.2788C2.39217 13.4747 2.52383 13.073 2.793 12.7963C2.92133 12.6641 3.06772 12.5569 3.23217 12.4747C3.57467 12.3022 3.99133 12.3022 4.82467 12.3022C5.658 12.3022 6.07467 12.3022 6.418 12.4747C6.58133 12.5569 6.72772 12.6641 6.85717 12.7963C7.12633 13.073 7.25717 13.4747 7.52133 14.2788L7.793 15.108C8.12133 16.1097 8.2855 16.6097 8.0405 16.9563C7.79467 17.3022 7.27633 17.3022 6.23883 17.3022H3.41133C2.37383 17.3022 1.85467 17.3022 1.60967 16.9563C1.36383 16.6097 1.528 16.1097 1.85633 15.108L2.128 14.2788Z" stroke="black" stroke-width="1.25" stroke-linecap="round" stroke-linejoin="round"/>
</svg>
