<svg width="16" height="18" viewBox="0 0 16 18" fill="none" xmlns="http://www.w3.org/2000/svg">
<path d="M14.6667 5.80193L9.66675 1.41859C9.20839 1.00863 8.61502 0.781982 8.00008 0.781982C7.38513 0.781982 6.79176 1.00863 6.33341 1.41859L1.33341 5.80193C1.06872 6.03865 0.857496 6.32906 0.713806 6.6538C0.570115 6.97854 0.497256 7.33016 0.500079 7.68526V14.9686C0.500079 15.6316 0.763471 16.2675 1.23231 16.7364C1.70115 17.2052 2.33704 17.4686 3.00008 17.4686H13.0001C13.6631 17.4686 14.299 17.2052 14.7678 16.7364C15.2367 16.2675 15.5001 15.6316 15.5001 14.9686V7.67693C15.5017 7.32323 15.4283 6.97321 15.2846 6.64999C15.141 6.32678 14.9304 6.03772 14.6667 5.80193ZM9.66675 15.8019H6.33341V11.6353C6.33341 11.4142 6.42121 11.2023 6.57749 11.046C6.73377 10.8897 6.94573 10.8019 7.16675 10.8019H8.83341C9.05443 10.8019 9.26639 10.8897 9.42267 11.046C9.57895 11.2023 9.66675 11.4142 9.66675 11.6353V15.8019ZM13.8334 14.9686C13.8334 15.1896 13.7456 15.4016 13.5893 15.5578C13.4331 15.7141 13.2211 15.8019 13.0001 15.8019H11.3334V11.6353C11.3334 10.9722 11.07 10.3363 10.6012 9.86749C10.1323 9.39865 9.49645 9.13526 8.83341 9.13526H7.16675C6.5037 9.13526 5.86782 9.39865 5.39898 9.86749C4.93014 10.3363 4.66675 10.9722 4.66675 11.6353V15.8019H3.00008C2.77907 15.8019 2.5671 15.7141 2.41082 15.5578C2.25454 15.4016 2.16675 15.1896 2.16675 14.9686V7.67693C2.1669 7.5586 2.19224 7.44167 2.24109 7.33391C2.28995 7.22614 2.36119 7.13002 2.45008 7.05193L7.45008 2.67693C7.60215 2.54333 7.79766 2.46965 8.00008 2.46965C8.2025 2.46965 8.398 2.54333 8.55008 2.67693L13.5501 7.05193C13.639 7.13002 13.7102 7.22614 13.7591 7.33391C13.8079 7.44167 13.8333 7.5586 13.8334 7.67693V14.9686Z" fill="#FAFAFA"/>
</svg>
