<svg width="20" height="20" viewBox="0 0 20 20" fill="none" xmlns="http://www.w3.org/2000/svg">
<path d="M14.5831 10.0001C14.2516 10.0001 13.9336 9.86843 13.6992 9.63401C13.4648 9.39959 13.3331 9.08164 13.3331 8.75012C13.3331 8.4186 13.4648 8.10066 13.6992 7.86624C13.9336 7.63182 14.2516 7.50012 14.5831 7.50012C14.9146 7.50012 15.2326 7.63182 15.467 7.86624C15.7014 8.10066 15.8331 8.4186 15.8331 8.75012C15.8331 9.08164 15.7014 9.39959 15.467 9.63401C15.2326 9.86843 14.9146 10.0001 14.5831 10.0001ZM12.0831 6.66679C11.7516 6.66679 11.4336 6.53509 11.1992 6.30067C10.9648 6.06625 10.8331 5.74831 10.8331 5.41679C10.8331 5.08527 10.9648 4.76733 11.1992 4.53291C11.4336 4.29848 11.7516 4.16679 12.0831 4.16679C12.4146 4.16679 12.7326 4.29848 12.967 4.53291C13.2014 4.76733 13.3331 5.08527 13.3331 5.41679C13.3331 5.74831 13.2014 6.06625 12.967 6.30067C12.7326 6.53509 12.4146 6.66679 12.0831 6.66679ZM7.91642 6.66679C7.5849 6.66679 7.26696 6.53509 7.03254 6.30067C6.79812 6.06625 6.66642 5.74831 6.66642 5.41679C6.66642 5.08527 6.79812 4.76733 7.03254 4.53291C7.26696 4.29848 7.5849 4.16679 7.91642 4.16679C8.24794 4.16679 8.56589 4.29848 8.80031 4.53291C9.03473 4.76733 9.16642 5.08527 9.16642 5.41679C9.16642 5.74831 9.03473 6.06625 8.80031 6.30067C8.56589 6.53509 8.24794 6.66679 7.91642 6.66679ZM5.41642 10.0001C5.0849 10.0001 4.76696 9.86843 4.53254 9.63401C4.29812 9.39959 4.16642 9.08164 4.16642 8.75012C4.16642 8.4186 4.29812 8.10066 4.53254 7.86624C4.76696 7.63182 5.0849 7.50012 5.41642 7.50012C5.74794 7.50012 6.06589 7.63182 6.30031 7.86624C6.53473 8.10066 6.66642 8.4186 6.66642 8.75012C6.66642 9.08164 6.53473 9.39959 6.30031 9.63401C6.06589 9.86843 5.74794 10.0001 5.41642 10.0001ZM9.99976 2.50012C8.01063 2.50012 6.10298 3.2903 4.69645 4.69682C3.28993 6.10334 2.49976 8.011 2.49976 10.0001C2.49976 11.9892 3.28993 13.8969 4.69645 15.3034C6.10298 16.7099 8.01063 17.5001 9.99976 17.5001C10.3313 17.5001 10.6492 17.3684 10.8836 17.134C11.1181 16.8996 11.2498 16.5816 11.2498 16.2501C11.2498 15.9251 11.1248 15.6335 10.9248 15.4168C10.7331 15.1918 10.6081 14.9001 10.6081 14.5835C10.6081 14.2519 10.7398 13.934 10.9742 13.6996C11.2086 13.4652 11.5266 13.3335 11.8581 13.3335H13.3331C14.4382 13.3335 15.498 12.8945 16.2794 12.1131C17.0608 11.3317 17.4998 10.2719 17.4998 9.16679C17.4998 5.48346 14.1414 2.50012 9.99976 2.50012Z" fill="black"/>
</svg>
