<svg width="18" height="19" viewBox="0 0 18 19" fill="none" xmlns="http://www.w3.org/2000/svg">
<path fill-rule="evenodd" clip-rule="evenodd" d="M16.9699 1.72866L16.4764 1.65016L16.3469 1.16716L17.0914 0.967163L16.9699 1.72866ZM10.3599 8.64366L9.93443 8.90566L9.93343 8.90466L9.93193 8.90216L9.92693 8.89416L9.90993 8.86566L9.84993 8.76216C9.77994 8.6397 9.71243 8.51584 9.64743 8.39066C9.4416 7.9972 9.2622 7.59047 9.11043 7.17316C8.94143 6.70116 8.79643 6.16066 8.77393 5.63766C8.75193 5.11666 8.84893 4.55116 9.23693 4.10766C9.58543 3.70966 10.2424 3.34316 10.9329 3.02616C11.6484 2.69666 12.4904 2.38066 13.2879 2.10716C14.2758 1.76987 15.2736 1.4624 16.2799 1.18516L16.3299 1.17116L16.3474 1.16616L16.4774 1.64966L16.9709 1.72816L16.9679 1.74666L16.9594 1.79966C16.9095 2.10641 16.8572 2.41275 16.8024 2.71866C16.6692 3.47096 16.5239 4.22106 16.3664 4.96866C16.1884 5.80916 15.9814 6.69016 15.7619 7.42766C15.6641 7.76486 15.5495 8.09695 15.4184 8.42266C15.3044 8.69766 15.1694 8.96466 15.0054 9.15266C14.6544 9.55366 14.1079 9.67916 13.6304 9.71116C13.1324 9.74466 12.5804 9.68416 12.0839 9.59616C11.6411 9.51646 11.2026 9.41466 10.7699 9.29116C10.5929 9.2413 10.4169 9.18796 10.2419 9.13116L10.2104 9.12016L10.2019 9.11716L10.1994 9.11666H10.1984L10.3599 8.64366ZM10.3599 8.64366L9.93443 8.90566L10.0284 9.05816L10.1984 9.11666L10.3599 8.64366ZM10.6959 8.22716C11.208 8.38638 11.7291 8.51494 12.2564 8.61216C12.7184 8.69366 13.1804 8.73966 13.5634 8.71366C13.9679 8.68666 14.1709 8.58766 14.2524 8.49466C14.3044 8.43466 14.3894 8.29266 14.4944 8.03966C14.6121 7.74615 14.7151 7.44694 14.8029 7.14316C15.0114 6.44316 15.2119 5.59166 15.3879 4.76216C15.5568 3.95963 15.7115 3.15417 15.8519 2.34616L15.6974 2.39116C15.1429 2.55466 14.3939 2.78516 13.6124 3.05316C12.8294 3.32166 12.0229 3.62516 11.3504 3.93466C10.6524 4.25566 10.1814 4.54716 9.98943 4.76666C9.83593 4.94166 9.75693 5.21116 9.77343 5.59466C9.78943 5.97616 9.89893 6.40966 10.0519 6.83516C10.2266 7.31664 10.442 7.78233 10.6959 8.22716ZM1.13143 2.98716L1.00193 3.47016L0.507932 3.54866L0.386932 2.78766L1.13143 2.98716ZM5.97243 9.15366L6.39793 9.41516L6.39893 9.41416L6.39993 9.41216L6.40393 9.40566L6.41843 9.38166L6.46843 9.29666C6.70754 8.87914 6.91077 8.44207 7.07593 7.99016C7.21493 7.60216 7.33593 7.15266 7.35443 6.71466C7.37343 6.27816 7.29243 5.79116 6.95543 5.40616C6.65743 5.06516 6.10593 4.76116 5.54593 4.50316C4.96043 4.23366 4.27293 3.97566 3.62343 3.75316C2.81895 3.47869 2.00642 3.22841 1.18693 3.00266L1.14593 2.99116L1.13143 2.98716L1.00193 3.47016L0.507932 3.54866L0.510432 3.56366L0.517432 3.60716L0.544432 3.77016C0.67931 4.57893 0.831177 5.38478 0.999932 6.18716C1.14493 6.87116 1.31393 7.58966 1.49293 8.19216C1.58293 8.49316 1.67693 8.77366 1.77543 9.01016C1.86893 9.23516 1.98343 9.46466 2.12743 9.62866C2.43743 9.98366 2.91393 10.0887 3.30843 10.1147C3.72443 10.1427 4.18093 10.0922 4.58843 10.0207C5.10016 9.92917 5.60476 9.80152 6.09843 9.63866L6.12393 9.63016L6.13143 9.62766L6.13393 9.62666L5.97243 9.15366ZM5.97243 9.15366L6.39793 9.41516L6.30393 9.56816L6.13393 9.62666L5.97243 9.15366ZM5.63593 8.73666C5.6676 8.68 5.7046 8.61116 5.74693 8.53016C5.86593 8.30116 6.01393 7.98916 6.13443 7.65216C6.25693 7.31116 6.34293 6.96866 6.35543 6.67216C6.36843 6.37266 6.30543 6.18216 6.20293 6.06416C6.06143 5.90316 5.69643 5.67316 5.12793 5.41166C4.58593 5.16216 3.93393 4.91666 3.29893 4.69916C2.74578 4.51027 2.18865 4.33323 1.62793 4.16816L1.62993 4.18066C1.71493 4.66066 1.83593 5.30866 1.97843 5.98016C2.12093 6.65316 2.28343 7.34166 2.45143 7.90716C2.53593 8.19016 2.61893 8.43466 2.69893 8.62666C2.78393 8.83016 2.84793 8.93366 2.87993 8.97066C2.92093 9.01716 3.05343 9.09566 3.37543 9.11716C3.67593 9.13716 4.04293 9.10116 4.41493 9.03566C4.82781 8.96154 5.23562 8.86201 5.63593 8.73666ZM4.54093 13.5032C4.41393 13.5102 4.35193 13.5282 4.33593 13.5352C4.10943 13.6377 3.42143 13.8777 2.82743 14.0802C2.52243 14.1847 2.22993 14.2827 2.01393 14.3552L1.99993 14.3602V17.0617C2.08793 17.0577 2.18243 17.0542 2.27893 17.0507C2.69293 17.0357 3.18543 17.0207 3.39893 17.0297C4.29493 17.0652 4.96793 17.2772 5.59093 17.4737L5.60443 17.4782C6.18843 17.6622 6.72943 17.8312 7.43793 17.8847C7.63793 17.8997 7.83243 17.9192 8.01393 17.9372H8.01643C8.71343 18.0072 9.17243 18.0422 9.52793 17.9132C9.80443 17.8127 10.8169 17.3432 11.8379 16.8297C12.3429 16.5757 12.8379 16.3172 13.2314 16.0957C13.4289 15.9847 13.5964 15.8857 13.7249 15.8027C13.7886 15.7613 13.8399 15.7263 13.8789 15.6977L13.9239 15.6627L13.9379 15.6507C13.9879 15.6002 14.0409 15.4242 13.9549 15.2587C13.9145 15.1813 13.8476 15.121 13.7664 15.0887C13.6664 15.0452 13.4964 15.0117 13.2264 15.0562C12.6174 15.1562 11.8899 15.4492 11.1634 15.7447L11.1534 15.7492C10.7964 15.8942 10.4384 16.0397 10.1209 16.1457C9.81593 16.2472 9.47743 16.3382 9.18243 16.3207C8.77743 16.2957 8.06693 16.1907 7.48093 16.0957C7.14417 16.0412 6.80783 15.9842 6.47193 15.9247L6.40693 15.9132L6.38393 15.9087L6.47893 14.9167L8.76393 14.9442H8.76893C8.79563 14.9413 8.82204 14.9363 8.84793 14.9292C8.92693 14.9092 9.06243 14.8597 9.23293 14.7392C9.28543 14.7017 9.35443 14.6327 9.41893 14.5402C9.4456 14.5015 9.46827 14.4638 9.48693 14.4272C9.20836 14.4092 8.93156 14.3701 8.65893 14.3102C8.5105 14.2778 8.36324 14.2403 8.21743 14.1977L8.20043 14.1927L5.40193 13.5697L5.37543 13.5652L5.27043 13.5492C5.15608 13.5324 5.04118 13.5195 4.92593 13.5107C4.79789 13.4999 4.66929 13.4974 4.54093 13.5032ZM5.49993 13.0802L5.59043 12.5887L5.59943 12.5902L8.45843 13.2262L8.47943 13.2327L8.48343 13.2342L8.50243 13.2397L8.58143 13.2622C8.65093 13.2812 8.75093 13.3072 8.86993 13.3332C9.11293 13.3857 9.41693 13.4342 9.69793 13.4342C9.97943 13.4342 10.2854 13.5392 10.4504 13.8382C10.5914 14.0942 10.5564 14.3712 10.5069 14.5542C10.4609 14.7159 10.3924 14.8704 10.3034 15.0132C10.4558 14.9532 10.6168 14.8885 10.7864 14.8192L10.8174 14.8062C11.5064 14.5262 12.3324 14.1902 13.0639 14.0697C13.9139 13.9307 14.5514 14.2357 14.8429 14.7997C15.0999 15.2972 15.0429 15.9532 14.6504 16.3522C14.5519 16.4522 14.4054 16.5537 14.2654 16.6442C14.0871 16.757 13.9057 16.8648 13.7214 16.9677C13.3089 17.1997 12.7984 17.4662 12.2864 17.7237C11.2754 18.2322 10.2104 18.7297 9.86843 18.8537C9.27543 19.0687 8.58943 19.0002 7.97993 18.9392L7.91643 18.9327C7.73197 18.9138 7.54729 18.8971 7.36243 18.8827C6.53243 18.8197 5.89643 18.6192 5.31543 18.4362L5.30293 18.4322C4.67793 18.2352 4.11493 18.0597 3.35893 18.0292C3.19293 18.0227 2.74593 18.0347 2.31493 18.0507C2.07223 18.0595 1.82956 18.0693 1.58693 18.0802L1.52243 18.0832L0.999432 18.1072V13.6392L1.43793 13.4937C1.79374 13.3754 2.14908 13.2558 2.50393 13.1347C3.12593 12.9222 3.75293 12.7017 3.92393 12.6247C4.10743 12.5417 4.31593 12.5147 4.48293 12.5047C4.66043 12.4947 4.84293 12.5022 5.00243 12.5142C5.1944 12.5295 5.38559 12.5534 5.57543 12.5857L5.58593 12.5877H5.58893L5.58993 12.5882H5.59093L5.49993 13.0802Z" fill="black"/>
</svg>
