<svg width="213" height="50" viewBox="0 0 213 50" fill="none" xmlns="http://www.w3.org/2000/svg">
<g clip-path="url(#clip0_18_154)">
<path d="M32.0143 11.5685L32.097 11.7339V11.7899C32.097 11.8445 32.125 11.9005 32.125 11.9272V11.9832C32.125 12.0379 32.125 12.1205 32.0983 12.1765L32.0143 12.3419V12.3699L16.845 37.9032C16.7723 38.0297 16.6673 38.1347 16.5409 38.2076C16.4144 38.2804 16.2709 38.3184 16.125 38.3179C15.9802 38.3145 15.8386 38.2749 15.713 38.2027C15.5875 38.1305 15.482 38.028 15.4063 37.9045L0.235667 12.3965V12.3685L0.153 12.2032C0.125 12.1485 0.125 12.0659 0.125 12.0112V11.9552C0.125 11.9005 0.125 11.8445 0.151667 11.8179V11.7619C0.179667 11.7072 0.179667 11.6512 0.235667 11.5965L0.262333 11.5685C0.290333 11.5139 0.318333 11.4579 0.374333 11.4299L0.457 11.3472C0.483667 11.3205 0.511667 11.2925 0.539667 11.2925C0.566333 11.2645 0.622333 11.2645 0.650333 11.2365C0.677 11.2365 0.705 11.2099 0.733 11.2099C0.804681 11.1882 0.879507 11.1787 0.954333 11.1819H31.269C31.3517 11.1819 31.4063 11.1819 31.489 11.2085C31.517 11.2085 31.545 11.2365 31.573 11.2365C31.6277 11.2645 31.6557 11.2645 31.7103 11.2925C31.737 11.3192 31.7663 11.3192 31.793 11.3472L31.8757 11.4299C31.92 11.4696 31.9574 11.5165 31.9863 11.5685H32.0143ZM16.125 25.6619L20.961 17.8685H11.289L16.125 25.6619ZM15.2957 27.4579L9.21567 17.6485L3.27567 14.2485L15.2957 34.4485V27.4579ZM10.0183 16.1832H22.205L28.1463 12.7832H4.077L10.0183 16.1832ZM23.033 17.6485L16.953 27.4579V34.4499L28.9743 14.2499L23.033 17.6485Z" fill="white"/>
</g>
<path d="M49.665 37.25L40.593 12.05H46.353L53.013 31.778L59.745 12.05H65.469L56.361 37.25H49.665ZM75.1817 37.25V12.05H92.0657V16.406H80.5817V22.346H90.9857V26.522H80.5817V32.894H92.0657V37.25H75.1817ZM103.186 37.25V12.05H112.978C115.018 12.05 116.71 12.41 118.054 13.13C119.422 13.826 120.43 14.762 121.078 15.938C121.75 17.114 122.086 18.422 122.086 19.862C122.086 21.206 121.762 22.466 121.114 23.642C120.49 24.818 119.506 25.766 118.162 26.486C116.818 27.206 115.078 27.566 112.942 27.566H108.586V37.25H103.186ZM116.182 37.25L111.106 26.234H116.902L122.302 37.25H116.182ZM108.586 23.678H112.654C113.998 23.678 114.982 23.354 115.606 22.706C116.254 22.058 116.578 21.182 116.578 20.078C116.578 18.998 116.254 18.146 115.606 17.522C114.982 16.874 113.998 16.55 112.654 16.55H108.586V23.678ZM141.944 37.682C140.144 37.682 138.512 37.382 137.048 36.782C135.608 36.158 134.468 35.246 133.628 34.046C132.788 32.846 132.332 31.37 132.26 29.618H138.02C138.044 30.314 138.224 30.926 138.56 31.454C138.896 31.982 139.352 32.402 139.928 32.714C140.504 33.002 141.176 33.146 141.944 33.146C142.592 33.146 143.156 33.05 143.636 32.858C144.14 32.642 144.536 32.342 144.824 31.958C145.112 31.55 145.256 31.046 145.256 30.446C145.256 29.822 145.088 29.294 144.752 28.862C144.416 28.406 143.96 28.022 143.384 27.71C142.808 27.374 142.136 27.074 141.368 26.81C140.624 26.522 139.82 26.246 138.956 25.982C136.964 25.334 135.428 24.458 134.348 23.354C133.292 22.25 132.764 20.774 132.764 18.926C132.764 17.39 133.136 16.082 133.88 15.002C134.648 13.898 135.692 13.058 137.012 12.482C138.332 11.906 139.832 11.618 141.512 11.618C143.24 11.618 144.764 11.918 146.084 12.518C147.404 13.094 148.448 13.946 149.216 15.074C149.984 16.178 150.392 17.498 150.44 19.034H144.644C144.62 18.506 144.464 18.026 144.176 17.594C143.912 17.162 143.54 16.814 143.06 16.55C142.604 16.286 142.064 16.154 141.44 16.154C140.888 16.13 140.384 16.214 139.928 16.406C139.496 16.574 139.136 16.85 138.848 17.234C138.584 17.594 138.452 18.05 138.452 18.602C138.452 19.13 138.584 19.598 138.848 20.006C139.136 20.39 139.52 20.726 140 21.014C140.504 21.278 141.08 21.53 141.728 21.77C142.4 22.01 143.132 22.25 143.924 22.49C145.196 22.922 146.36 23.438 147.416 24.038C148.496 24.614 149.36 25.382 150.008 26.342C150.68 27.278 151.016 28.526 151.016 30.086C151.016 31.454 150.656 32.714 149.936 33.866C149.24 35.018 148.22 35.942 146.876 36.638C145.556 37.334 143.912 37.682 141.944 37.682ZM161.936 37.25V12.05H178.82V16.406H167.336V22.346H177.74V26.522H167.336V32.894H178.82V37.25H161.936ZM189.94 37.25V12.05H195.34V37.25H189.94Z" fill="white"/>
<defs>
<clipPath id="clip0_18_154">
<rect width="32" height="32" fill="white" transform="matrix(1 0 0 -1 0.125 40.75)"/>
</clipPath>
</defs>
</svg>
